<svg width="20" height="17" viewBox="0 0 20 17" fill="none" xmlns="http://www.w3.org/2000/svg">
<path d="M9.16625 17C8.2475 17 7.5 16.2525 7.5 15.3337C7.5 14.415 8.2475 13.6675 9.16625 13.6675C10.085 13.6675 10.8325 14.415 10.8325 15.3337C10.8325 16.2525 10.085 17 9.16625 17Z" fill="#188B30"/>
<path d="M15.0001 17C14.0814 17 13.3339 16.2525 13.3339 15.3337C13.3339 14.415 14.0814 13.6675 15.0001 13.6675C15.9189 13.6675 16.6664 14.415 16.6664 15.3337C16.6664 16.2525 15.9189 17 15.0001 17Z" fill="#188B30"/>
<path d="M17.0412 9.56624L17.0075 9.70749C16.9163 10.0737 16.5825 10.3325 16.1987 10.3325H7.965C7.58125 10.3325 7.24875 10.0737 7.15625 9.69874L5.85875 4.49999H8.6425C8.47625 3.97499 8.37625 3.42499 8.3425 2.83374H5.4425L5.2925 2.22499C5.00875 1.10874 4.0175 0.33374 2.8675 0.33374H0.83375C0.375 0.33374 0 0.708741 0 1.16624C0 1.62374 0.375 1.99999 0.83375 1.99999H2.8675C3.25125 1.99999 3.58375 2.25874 3.67625 2.63374L5.5425 10.1087C5.825 11.225 6.81625 12 7.96625 12H16.2C17.35 12 18.3412 11.225 18.625 10.1162L19.175 7.94999C18.4837 8.62499 17.7337 9.16624 17.0412 9.56624Z" fill="#188B30"/>
</svg>
