<svg width="21" height="22" viewBox="0 0 21 22" fill="none" xmlns="http://www.w3.org/2000/svg">
<path d="M19.9507 17.5269L3.90291 1.47918C3.20216 0.778425 2.06792 0.778425 1.36935 1.47918L0.525565 2.32297C-0.175188 3.02328 -0.175188 4.15752 0.525565 4.85653L16.5733 20.9043C17.2741 21.605 18.4083 21.605 19.1069 20.9043L19.9507 20.0605C20.6514 19.3602 20.6514 18.2259 19.9507 17.5269Z" fill="#188B30"/>
<path d="M16.5733 1.47918L0.525565 17.5269C-0.175188 18.2277 -0.175188 19.3619 0.525565 20.0605L1.36935 20.9043C2.06967 21.605 3.20391 21.605 3.90291 20.9043L19.9507 4.85653C20.6514 4.15577 20.6514 3.02153 19.9507 2.32297L19.1069 1.47918C18.4066 0.778425 17.2723 0.778425 16.5733 1.47918Z" fill="#188B30"/>
</svg>
