<svg width="90" height="90" viewBox="0 0 90 90" fill="none" xmlns="http://www.w3.org/2000/svg">
<g clip-path="url(#clip0_254_4186)" filter="url(#filter0_dd_254_4186)">
<path d="M57.5 65H32.5C28.3575 65 25 61.6425 25 57.5V32.5C25 28.3575 28.3575 25 32.5 25H57.5C61.6425 25 65 28.3575 65 32.5V57.5C65 61.6425 61.6425 65 57.5 65Z" fill="white"/>
<path d="M52.9087 35.1462C52.7837 35.0712 52.65 35.0125 52.5 35.0125H40.6L42.2662 36.6787H49.4575C49.2738 37.0625 49.1663 37.4787 49.1663 37.9287V52.0625C49.1663 52.7537 48.6075 53.3125 47.9163 53.3125C47.225 53.3125 46.6663 52.7537 46.6663 52.0625V50.0125C46.6663 49.5537 46.2913 49.1787 45.8325 49.1787H38.3325V43.9037L36.6663 42.2375V49.1787H35.8337C35.375 49.1787 35 49.5537 35 50.0125V52.4787C35 53.8537 36.125 54.9787 37.5 54.9787H47.9163C48.7163 54.9787 49.45 54.6537 49.975 54.1199C50.5087 53.5949 50.8337 52.8612 50.8337 52.0612V40.0112H54.1675C54.6262 40.0112 55.0012 39.6362 55.0012 39.1775V37.9275C55 36.6125 54.1162 35.5037 52.9087 35.1462Z" fill="#188B30"/>
<path d="M45.209 45.8288C45.1677 45.8288 45.1277 45.8251 45.0865 45.8163L42.1677 45.2326C42.0465 45.2088 41.9352 45.1488 41.8477 45.0613L35.4252 38.64C34.8602 38.0738 34.8602 37.1538 35.4252 36.5888L36.5927 35.4213C37.1577 34.855 38.0777 34.8563 38.644 35.4213L45.0665 41.8438C45.154 41.9313 45.214 42.0425 45.2377 42.1638L45.8215 45.0826C45.8627 45.2876 45.7977 45.4988 45.6502 45.6463C45.5315 45.7651 45.3727 45.8288 45.209 45.8288Z" fill="#188B30"/>
</g>
<defs>
<filter id="filter0_dd_254_4186" x="0" y="0" width="90" height="90" filterUnits="userSpaceOnUse" color-interpolation-filters="sRGB">
<feFlood flood-opacity="0" result="BackgroundImageFix"/>
<feColorMatrix in="SourceAlpha" type="matrix" values="0 0 0 0 0 0 0 0 0 0 0 0 0 0 0 0 0 0 127 0" result="hardAlpha"/>
<feOffset dx="5" dy="5"/>
<feGaussianBlur stdDeviation="10"/>
<feColorMatrix type="matrix" values="0 0 0 0 0 0 0 0 0 0 0 0 0 0 0 0 0 0 0.05 0"/>
<feBlend mode="normal" in2="BackgroundImageFix" result="effect1_dropShadow_254_4186"/>
<feColorMatrix in="SourceAlpha" type="matrix" values="0 0 0 0 0 0 0 0 0 0 0 0 0 0 0 0 0 0 127 0" result="hardAlpha"/>
<feOffset dx="-5" dy="-5"/>
<feGaussianBlur stdDeviation="10"/>
<feColorMatrix type="matrix" values="0 0 0 0 1 0 0 0 0 1 0 0 0 0 1 0 0 0 0.5 0"/>
<feBlend mode="normal" in2="effect1_dropShadow_254_4186" result="effect2_dropShadow_254_4186"/>
<feBlend mode="normal" in="SourceGraphic" in2="effect2_dropShadow_254_4186" result="shape"/>
</filter>
<clipPath id="clip0_254_4186">
<rect width="40" height="40" fill="white" transform="translate(25 25)"/>
</clipPath>
</defs>
</svg>
