<svg width="12" height="16" viewBox="0 0 12 16" fill="none" xmlns="http://www.w3.org/2000/svg">
<path d="M10.2188 6.125H1.78125C1.00603 6.125 0.375 6.75603 0.375 7.53125V14.0938C0.375 14.869 1.00603 15.5 1.78125 15.5H10.2188C10.994 15.5 11.625 14.869 11.625 14.0938V7.53125C11.625 6.75603 10.994 6.125 10.2188 6.125Z" fill="white"/>
<path d="M9.75 4.25V6.125H8.50031V4.25C8.50031 2.86916 7.38199 1.74969 6 1.74969C4.61801 1.74969 3.49969 2.86916 3.49969 4.25V6.125H2.25V4.25C2.25 2.18091 3.93091 0.5 6 0.5C8.06909 0.5 9.75 2.18091 9.75 4.25Z" fill="white"/>
</svg>
