<svg width="30" height="30" viewBox="0 0 30 30" fill="none" xmlns="http://www.w3.org/2000/svg">
<path d="M24.375 30H5.625C2.51816 30 0 27.4818 0 24.375V5.625C0 2.51816 2.51816 0 5.625 0H24.375C27.4818 0 30 2.51816 30 5.625V24.375C30 27.4818 27.4818 30 24.375 30Z" fill="#188B30"/>
<path d="M19.2188 13.125H10.7812C10.006 13.125 9.375 13.756 9.375 14.5312V21.0938C9.375 21.869 10.006 22.5 10.7812 22.5H19.2188C19.994 22.5 20.625 21.869 20.625 21.0938V14.5312C20.625 13.756 19.994 13.125 19.2188 13.125Z" fill="white"/>
<path d="M18.75 11.25V13.125H17.5003V11.25C17.5003 9.86916 16.382 8.74969 15 8.74969C13.618 8.74969 12.4997 9.86916 12.4997 11.25V13.125H11.25V11.25C11.25 9.18091 12.9309 7.5 15 7.5C17.0691 7.5 18.75 9.18091 18.75 11.25Z" fill="white"/>
<rect x="0.25" y="0.25" width="29.5" height="29.5" rx="4.75" stroke="white" stroke-width="0.5"/>
</svg>
