<svg width="26" height="28" viewBox="0 0 26 28" fill="none" xmlns="http://www.w3.org/2000/svg">
<g filter="url(#filter0_d_2448_8238)">
<path d="M20.8159 14.0936C19.5562 13.0289 18.8335 11.4713 18.8335 9.82239V7.5C18.8335 4.56757 16.6548 2.13989 13.8335 1.7337V0.83374C13.8335 0.37262 13.4597 0 12.9998 0C12.5399 0 12.166 0.37262 12.166 0.83374V1.7337C9.34344 2.13989 7.16602 4.56757 7.16602 7.5V9.82361C7.16602 11.4725 6.44336 13.0289 5.17596 14.1013C4.85217 14.3787 4.66602 14.7824 4.66602 15.2087C4.66602 16.0126 5.3197 16.6675 6.12476 16.6675H19.8748C20.6786 16.6675 21.3335 16.0138 21.3335 15.2087C21.3335 14.7824 21.1473 14.3787 20.8159 14.0936Z" fill="#188B30"/>
<path d="M12.9998 20C14.5085 20 15.7711 18.9249 16.061 17.5H9.93732C10.2285 18.9249 11.491 20 12.9998 20Z" fill="#188B30"/>
</g>
<defs>
<filter id="filter0_d_2448_8238" x="0.666016" y="0" width="24.668" height="28" filterUnits="userSpaceOnUse" color-interpolation-filters="sRGB">
<feFlood flood-opacity="0" result="BackgroundImageFix"/>
<feColorMatrix in="SourceAlpha" type="matrix" values="0 0 0 0 0 0 0 0 0 0 0 0 0 0 0 0 0 0 127 0" result="hardAlpha"/>
<feOffset dy="4"/>
<feGaussianBlur stdDeviation="2"/>
<feComposite in2="hardAlpha" operator="out"/>
<feColorMatrix type="matrix" values="0 0 0 0 0 0 0 0 0 0 0 0 0 0 0 0 0 0 0.25 0"/>
<feBlend mode="normal" in2="BackgroundImageFix" result="effect1_dropShadow_2448_8238"/>
<feBlend mode="normal" in="SourceGraphic" in2="effect1_dropShadow_2448_8238" result="shape"/>
</filter>
</defs>
</svg>
