<svg width="20" height="20" viewBox="0 0 20 20" fill="none" xmlns="http://www.w3.org/2000/svg">
<path d="M19.7563 18.5775L14.0687 12.89C15.17 11.53 15.8337 9.79996 15.8337 7.91746C15.8337 3.55247 12.2825 0.0012207 7.9175 0.0012207C3.5525 0.0012207 0 3.55122 0 7.91621C0 12.2812 3.55125 15.8325 7.91625 15.8325C9.8 15.8325 11.5288 15.1687 12.89 14.0675L18.5775 19.755C18.9025 20.08 19.43 20.08 19.7563 19.755C20.0813 19.43 20.0813 18.9025 19.7563 18.5775ZM1.66625 7.91621C1.66625 4.46997 4.47 1.66622 7.91625 1.66622C11.3625 1.66622 14.1663 4.46997 14.1663 7.91621C14.1663 11.3625 11.3625 14.1662 7.91625 14.1662C4.47 14.1662 1.66625 11.3625 1.66625 7.91621Z" fill="#188B30"/>
</svg>
