<svg width="16" height="16" viewBox="0 0 16 16" fill="none" xmlns="http://www.w3.org/2000/svg">
<path d="M15.3172 14.4332L11.0516 10.1675C11.8775 9.14753 12.3753 7.85003 12.3753 6.43816C12.3753 3.16441 9.71187 0.500977 6.43812 0.500977C3.16437 0.500977 0.5 3.16347 0.5 6.43722C0.5 9.71097 3.16344 12.3744 6.43719 12.3744C7.85 12.3744 9.14656 11.8766 10.1675 11.0507L14.4331 15.3163C14.6769 15.56 15.0725 15.56 15.3172 15.3163C15.5609 15.0725 15.5609 14.6769 15.3172 14.4332ZM1.74969 6.43722C1.74969 3.85254 3.8525 1.74973 6.43719 1.74973C9.02188 1.74973 11.1247 3.85254 11.1247 6.43722C11.1247 9.02191 9.02188 11.1247 6.43719 11.1247C3.8525 11.1247 1.74969 9.02191 1.74969 6.43722Z" fill="white"/>
</svg>
